# xmcd CD database file
#
# Track frame offsets:
#	150
#	21774
#	43965
#	58890
#	77659
#	97407
#	131966
#	152960
#	173015
#	200208
#
# Disc length: 2950 seconds
#
# Revision: 0
# Processed by: cddbd v1.5.2PL0 Copyright (c) Steve Scherf et al.
# Submitted via: CDex 1.70beta2
#
DISCID=970b840a
DTITLE=Ray Bryant - Montreux '77
DYEAR=1900
DGENRE=Jazz
TTITLE0=Take the A Train
TTITLE1=Georgie On My Mind
TTITLE2=Jungle Town Jubilee
TTITLE3=If I Could Just Make It To Heaven
TTITLE4=Django
TTITLE5=Blues No. 6
TTITLE6=Satin Doll
TTITLE7=Sometimes I Feel Like A Motherless Child
TTITLE8=St. Louis Blues
TTITLE9=Things Ain't What They Used To Be
EXTD=
EXTT0=
EXTT1=
EXTT2=
EXTT3=
EXTT4=
EXTT5=
EXTT6=
EXTT7=
EXTT8=
EXTT9=
PLAYORDER=
